<svg width="53" height="75" viewBox="0 0 53 75" fill="none" xmlns="http://www.w3.org/2000/svg">
<path d="M42.408 20H21.7121C21.318 19.998 20.937 20.1248 20.6429 20.356C20.3488 20.5871 20.1625 20.9061 20.1202 21.2511L16.1601 21.556C15.8453 21.5804 15.5458 21.6868 15.2999 21.8615C15.0539 22.0363 14.8726 22.2715 14.779 22.5373L10.3135 23.2382C9.89834 23.3032 9.52941 23.5105 9.28766 23.8147C9.0459 24.1189 8.95108 24.4951 9.02399 24.8608L14.8467 53.8434C14.9205 54.209 15.1559 54.5338 15.5014 54.7467C15.8468 54.9596 16.2741 55.0431 16.6894 54.9789L30.7427 52.7955L37.9783 52.2383H42.408C42.8302 52.2383 43.2352 52.0906 43.5337 51.8277C43.8323 51.5648 44 51.2083 44 50.8365V21.3983C43.9989 21.0272 43.8308 20.6715 43.5323 20.4094C43.2339 20.1472 42.8295 20 42.408 20ZM17.1073 22.8913L20.1202 22.66V50.84C20.1202 51.118 20.214 51.3896 20.3897 51.6205C20.5655 51.8514 20.8152 52.0311 21.1072 52.1367L20.0207 52.2208C19.9164 52.229 19.8113 52.219 19.7114 52.1913C19.6115 52.1637 19.5188 52.1189 19.4385 52.0597C19.3583 52.0004 19.2921 51.9278 19.2438 51.846C19.1955 51.7642 19.166 51.6748 19.157 51.583L16.371 23.6518C16.3618 23.5591 16.3736 23.4658 16.4057 23.3771C16.4378 23.2885 16.4897 23.2065 16.5582 23.1357C16.6268 23.0649 16.7106 23.0068 16.8049 22.9649C16.8991 22.9229 17.002 22.8979 17.1073 22.8913ZM10.7632 25.2989C10.7268 25.1193 10.7712 24.9343 10.8871 24.7832C11.0031 24.632 11.1813 24.5266 11.3841 24.4893L14.8069 23.9567L14.7193 23.077L17.6327 52.403C17.6695 52.7601 17.8604 53.0912 18.166 53.3282L16.4068 53.6016L10.7632 25.2989ZM42.408 50.1461C42.408 50.332 42.3241 50.5103 42.1749 50.6417C42.0256 50.7732 41.8231 50.847 41.612 50.847H22.5081C22.297 50.847 22.0946 50.7732 21.9453 50.6417C21.796 50.5103 21.7121 50.332 21.7121 50.1461V22.1098C21.7121 21.9239 21.796 21.7456 21.9453 21.6141C22.0946 21.4827 22.297 21.4089 22.5081 21.4089H41.612C41.8231 21.4089 42.0256 21.4827 42.1749 21.6141C42.3241 21.7456 42.408 21.9239 42.408 22.1098V50.1461Z" fill="black"/>
</svg>
