<svg width="53" height="75" viewBox="0 0 53 75" fill="none" xmlns="http://www.w3.org/2000/svg">
<path d="M42.408 20H21.7121C21.318 19.998 20.937 20.1248 20.6429 20.356C20.3488 20.5871 20.1625 20.9061 20.1202 21.2511L16.1601 21.556C15.8453 21.5804 15.5458 21.6868 15.2999 21.8615C15.0539 22.0363 14.8726 22.2715 14.779 22.5373L10.3135 23.2382C9.89834 23.3032 9.52941 23.5105 9.28766 23.8147C9.0459 24.1189 8.95108 24.4951 9.02399 24.8608L14.8467 53.8434C14.9205 54.209 15.1559 54.5338 15.5014 54.7467C15.8468 54.9596 16.2741 55.0431 16.6894 54.9789L30.7427 52.7955L37.9783 52.2383H42.408C42.8302 52.2383 43.2352 52.0906 43.5337 51.8277C43.8323 51.5648 44 51.2083 44 50.8365V21.3983C43.9989 21.0272 43.8308 20.6715 43.5323 20.4094C43.2339 20.1472 42.8295 20 42.408 20ZM17.1073 22.8913L20.1202 22.66V50.84C20.1202 51.118 20.214 51.3896 20.3897 51.6205C20.5655 51.8514 20.8152 52.0311 21.1072 52.1367L20.0207 52.2208C19.9164 52.229 19.8113 52.219 19.7114 52.1913C19.6115 52.1637 19.5188 52.1189 19.4385 52.0597C19.3583 52.0004 19.2921 51.9278 19.2438 51.846C19.1955 51.7642 19.166 51.6748 19.157 51.583L16.371 23.6518C16.3618 23.5591 16.3736 23.4658 16.4057 23.3771C16.4378 23.2885 16.4897 23.2065 16.5582 23.1357C16.6268 23.0649 16.7106 23.0068 16.8049 22.9649C16.8991 22.9229 17.002 22.8979 17.1073 22.8913ZM10.7632 25.2989C10.7268 25.1193 10.7712 24.9343 10.8871 24.7832C11.0031 24.632 11.1813 24.5266 11.3841 24.4893L14.8069 23.9567L14.7193 23.077L17.6327 52.403C17.6695 52.7601 17.8604 53.0912 18.166 53.3282L16.4068 53.6016L10.7632 25.2989ZM42.408 50.1461C42.408 50.332 42.3241 50.5103 42.1749 50.6417C42.0256 50.7732 41.8231 50.847 41.612 50.847H22.5081C22.297 50.847 22.0946 50.7732 21.9453 50.6417C21.796 50.5103 21.7121 50.332 21.7121 50.1461V22.1098C21.7121 21.9239 21.796 21.7456 21.9453 21.6141C22.0946 21.4827 22.297 21.4089 22.5081 21.4089H41.612C41.8231 21.4089 42.0256 21.4827 42.1749 21.6141C42.3241 21.7456 42.408 21.9239 42.408 22.1098V50.1461Z" fill="black"/>
<path d="M29.2102 40.0994C28.7415 40.0994 28.3236 40.0189 27.9567 39.858C27.5921 39.697 27.3021 39.4732 27.0866 39.1868C26.8736 38.898 26.7576 38.563 26.7386 38.1818H27.6335C27.6525 38.4162 27.733 38.6186 27.875 38.7891C28.017 38.9571 28.2029 39.0874 28.4325 39.1797C28.6622 39.272 28.9167 39.3182 29.196 39.3182C29.5085 39.3182 29.7855 39.2637 30.027 39.1548C30.2685 39.0459 30.4579 38.8944 30.5952 38.7003C30.7325 38.5062 30.8011 38.2812 30.8011 38.0256C30.8011 37.758 30.7348 37.5225 30.6023 37.3189C30.4697 37.1129 30.2756 36.9519 30.0199 36.8359C29.7642 36.7199 29.4517 36.6619 29.0824 36.6619H28.5V35.8807H29.0824C29.3712 35.8807 29.6245 35.8286 29.8423 35.7244C30.0625 35.6203 30.2341 35.4735 30.3572 35.2841C30.4827 35.0947 30.5455 34.8722 30.5455 34.6165C30.5455 34.3703 30.491 34.156 30.3821 33.9737C30.2732 33.7914 30.1193 33.6494 29.9205 33.5476C29.724 33.4458 29.492 33.3949 29.2244 33.3949C28.9735 33.3949 28.7367 33.4411 28.5142 33.5334C28.294 33.6233 28.1141 33.7547 27.9744 33.9276C27.8348 34.098 27.759 34.304 27.7472 34.5455H26.8949C26.9091 34.1643 27.0239 33.8305 27.2393 33.544C27.4548 33.2552 27.7365 33.0303 28.0845 32.8693C28.4349 32.7083 28.8196 32.6278 29.2386 32.6278C29.6884 32.6278 30.0743 32.719 30.3963 32.9013C30.7183 33.0812 30.9657 33.3191 31.1385 33.6151C31.3113 33.911 31.3977 34.2306 31.3977 34.5739C31.3977 34.9834 31.29 35.3326 31.0746 35.6214C30.8615 35.9103 30.5715 36.1103 30.2045 36.2216V36.2784C30.6638 36.3542 31.0225 36.5495 31.2805 36.8643C31.5386 37.1768 31.6676 37.5639 31.6676 38.0256C31.6676 38.4209 31.5599 38.776 31.3445 39.0909C31.1314 39.4034 30.8402 39.6496 30.4709 39.8295C30.1016 40.0095 29.6813 40.0994 29.2102 40.0994ZM35.3928 40.0994C34.9761 40.0994 34.6009 40.0166 34.267 39.8509C33.9332 39.6851 33.6657 39.4579 33.4645 39.169C33.2633 38.8802 33.1532 38.5511 33.1342 38.1818H33.9865C34.0196 38.5109 34.1688 38.7831 34.4339 38.9986C34.7015 39.2116 35.0211 39.3182 35.3928 39.3182C35.6911 39.3182 35.9562 39.2483 36.1882 39.1087C36.4226 38.969 36.6061 38.7772 36.7386 38.5334C36.8736 38.2872 36.9411 38.009 36.9411 37.6989C36.9411 37.3816 36.8712 37.0987 36.7315 36.8501C36.5942 36.5992 36.4048 36.4015 36.1634 36.2571C35.9219 36.1127 35.6461 36.0393 35.3359 36.0369C35.1134 36.0346 34.8849 36.0689 34.6506 36.1399C34.4162 36.2086 34.2232 36.2973 34.0717 36.4062L33.2479 36.3068L33.6882 32.7273H37.4666V33.5085H34.4268L34.1712 35.6534H34.2138C34.3629 35.535 34.55 35.4368 34.7749 35.3587C34.9998 35.2805 35.2341 35.2415 35.478 35.2415C35.9231 35.2415 36.3196 35.348 36.6676 35.5611C37.018 35.7718 37.2926 36.0606 37.4915 36.4276C37.6927 36.7945 37.7933 37.2135 37.7933 37.6847C37.7933 38.1487 37.6892 38.563 37.4808 38.9276C37.2749 39.2898 36.9908 39.5762 36.6286 39.7869C36.2663 39.9953 35.8544 40.0994 35.3928 40.0994Z" fill="#B88609"/>
</svg>
