<svg width="50" height="50" viewBox="0 0 50 50" fill="none" xmlns="http://www.w3.org/2000/svg">
<path d="M33.408 2.35477e-05H12.7121C12.318 -0.00198722 11.937 0.124843 11.6429 0.355963C11.3488 0.587084 11.1625 0.906059 11.1202 1.25115L7.16008 1.55604C6.84527 1.58043 6.54583 1.68677 6.29988 1.86152C6.05394 2.03627 5.87262 2.27152 5.77903 2.53731L1.3135 3.23822C0.898345 3.30317 0.52941 3.5105 0.287655 3.8147C0.0459007 4.1189 -0.0489244 4.49513 0.0239887 4.86083L5.84669 33.8434C5.92045 34.209 6.1559 34.5338 6.50137 34.7467C6.84684 34.9596 7.27411 35.0431 7.68942 34.9789L21.7427 32.7955L28.9783 32.2383H33.408C33.8302 32.2383 34.2352 32.0906 34.5337 31.8277C34.8323 31.5648 35 31.2083 35 30.8365V1.39834C34.9989 1.02716 34.8308 0.671501 34.5323 0.409366C34.2339 0.147232 33.8295 2.23878e-05 33.408 2.35477e-05ZM8.10732 2.89127L11.1202 2.65997V30.84C11.1202 31.118 11.214 31.3896 11.3897 31.6205C11.5655 31.8514 11.8152 32.0311 12.1072 32.1367L11.0207 32.2208C10.9164 32.229 10.8113 32.219 10.7114 32.1913C10.6115 32.1637 10.5188 32.1189 10.4385 32.0597C10.3583 32.0004 10.2921 31.9278 10.2438 31.846C10.1955 31.7642 10.166 31.6748 10.157 31.583L7.37102 3.65176C7.36177 3.5591 7.37356 3.46575 7.4057 3.37715C7.43784 3.28854 7.48969 3.20646 7.55822 3.13568C7.62675 3.0649 7.71059 3.00683 7.80487 2.96487C7.89914 2.92291 8.00195 2.89789 8.10732 2.89127ZM1.76324 5.29889C1.72676 5.11935 1.7712 4.93435 1.88713 4.78319C2.00306 4.63203 2.18134 4.52662 2.38411 4.48934L5.80689 3.95665L5.71933 3.07701L8.63267 32.403C8.66952 32.7601 8.86038 33.0912 9.16599 33.3282L7.40684 33.6016L1.76324 5.29889ZM33.408 30.1461C33.408 30.332 33.3241 30.5103 33.1749 30.6417C33.0256 30.7732 32.8231 30.847 32.612 30.847H13.5081C13.297 30.847 13.0946 30.7732 12.9453 30.6417C12.796 30.5103 12.7121 30.332 12.7121 30.1461V2.10976C12.7121 1.92387 12.796 1.74559 12.9453 1.61414C13.0946 1.4827 13.297 1.40885 13.5081 1.40885H32.612C32.8231 1.40885 33.0256 1.4827 33.1749 1.61414C33.3241 1.74559 33.408 1.92387 33.408 2.10976V30.1461Z" fill="black"/>
</svg>
