<svg width="53" height="75" viewBox="0 0 53 75" fill="none" xmlns="http://www.w3.org/2000/svg">
<path d="M42.408 20H21.7121C21.318 19.998 20.937 20.1248 20.6429 20.356C20.3488 20.5871 20.1625 20.9061 20.1202 21.2511L16.1601 21.556C15.8453 21.5804 15.5458 21.6868 15.2999 21.8615C15.0539 22.0363 14.8726 22.2715 14.779 22.5373L10.3135 23.2382C9.89834 23.3032 9.52941 23.5105 9.28766 23.8147C9.0459 24.1189 8.95108 24.4951 9.02399 24.8608L14.8467 53.8434C14.9205 54.209 15.1559 54.5338 15.5014 54.7467C15.8468 54.9596 16.2741 55.0431 16.6894 54.9789L30.7427 52.7955L37.9783 52.2383H42.408C42.8302 52.2383 43.2352 52.0906 43.5337 51.8277C43.8323 51.5648 44 51.2083 44 50.8365V21.3983C43.9989 21.0272 43.8308 20.6715 43.5323 20.4094C43.2339 20.1472 42.8295 20 42.408 20ZM17.1073 22.8913L20.1202 22.66V50.84C20.1202 51.118 20.214 51.3896 20.3897 51.6205C20.5655 51.8514 20.8152 52.0311 21.1072 52.1367L20.0207 52.2208C19.9164 52.229 19.8113 52.219 19.7114 52.1913C19.6115 52.1637 19.5188 52.1189 19.4385 52.0597C19.3583 52.0004 19.2921 51.9278 19.2438 51.846C19.1955 51.7642 19.166 51.6748 19.157 51.583L16.371 23.6518C16.3618 23.5591 16.3736 23.4658 16.4057 23.3771C16.4378 23.2885 16.4897 23.2065 16.5582 23.1357C16.6268 23.0649 16.7106 23.0068 16.8049 22.9649C16.8991 22.9229 17.002 22.8979 17.1073 22.8913ZM10.7632 25.2989C10.7268 25.1193 10.7712 24.9343 10.8871 24.7832C11.0031 24.632 11.1813 24.5266 11.3841 24.4893L14.8069 23.9567L14.7193 23.077L17.6327 52.403C17.6695 52.7601 17.8604 53.0912 18.166 53.3282L16.4068 53.6016L10.7632 25.2989ZM42.408 50.1461C42.408 50.332 42.3241 50.5103 42.1749 50.6417C42.0256 50.7732 41.8231 50.847 41.612 50.847H22.5081C22.297 50.847 22.0946 50.7732 21.9453 50.6417C21.796 50.5103 21.7121 50.332 21.7121 50.1461V22.1098C21.7121 21.9239 21.796 21.7456 21.9453 21.6141C22.0946 21.4827 22.297 21.4089 22.5081 21.4089H41.612C41.8231 21.4089 42.0256 21.4827 42.1749 21.6141C42.3241 21.7456 42.408 21.9239 42.408 22.1098V50.1461Z" fill="black"/>
<path d="M26.7528 40V39.3608L29.1534 36.733C29.4351 36.4252 29.6671 36.1577 29.8494 35.9304C30.0317 35.7008 30.1667 35.4853 30.2543 35.2841C30.3442 35.0805 30.3892 34.8674 30.3892 34.6449C30.3892 34.3892 30.3277 34.1679 30.2045 33.9808C30.0838 33.7938 29.9181 33.6494 29.7074 33.5476C29.4967 33.4458 29.2599 33.3949 28.9972 33.3949C28.7178 33.3949 28.474 33.4529 28.2656 33.5689C28.0597 33.6825 27.8999 33.8423 27.7862 34.0483C27.675 34.2543 27.6193 34.4957 27.6193 34.7727H26.7812C26.7812 34.3466 26.8795 33.9725 27.076 33.6506C27.2725 33.3286 27.54 33.0777 27.8786 32.8977C28.2195 32.7178 28.6018 32.6278 29.0256 32.6278C29.4517 32.6278 29.8293 32.7178 30.1584 32.8977C30.4875 33.0777 30.7455 33.3203 30.9325 33.6257C31.1196 33.9311 31.2131 34.2708 31.2131 34.6449C31.2131 34.9124 31.1645 35.174 31.0675 35.4297C30.9728 35.683 30.8071 35.9659 30.5703 36.2784C30.3359 36.5885 30.0104 36.9673 29.5938 37.4148L27.9602 39.1619V39.2188H31.3409V40H26.7528ZM35.1797 40.0994C34.6446 40.0994 34.1889 39.9538 33.8125 39.6626C33.4361 39.3691 33.1484 38.9441 32.9496 38.3878C32.7507 37.8291 32.6513 37.1544 32.6513 36.3636C32.6513 35.5777 32.7507 34.9065 32.9496 34.3501C33.1508 33.7914 33.4396 33.3653 33.8161 33.0717C34.1948 32.7758 34.6494 32.6278 35.1797 32.6278C35.71 32.6278 36.1634 32.7758 36.5398 33.0717C36.9186 33.3653 37.2074 33.7914 37.4062 34.3501C37.6075 34.9065 37.7081 35.5777 37.7081 36.3636C37.7081 37.1544 37.6087 37.8291 37.4098 38.3878C37.2109 38.9441 36.9233 39.3691 36.5469 39.6626C36.1705 39.9538 35.7147 40.0994 35.1797 40.0994ZM35.1797 39.3182C35.71 39.3182 36.1219 39.0625 36.4155 38.5511C36.709 38.0398 36.8558 37.3106 36.8558 36.3636C36.8558 35.7339 36.7884 35.1977 36.6534 34.755C36.5208 34.3123 36.3291 33.9749 36.0781 33.7429C35.8295 33.5109 35.5301 33.3949 35.1797 33.3949C34.6541 33.3949 34.2434 33.6541 33.9474 34.1726C33.6515 34.6887 33.5036 35.419 33.5036 36.3636C33.5036 36.9934 33.5698 37.5284 33.7024 37.9688C33.835 38.4091 34.0256 38.7441 34.2741 38.9737C34.5251 39.2034 34.8269 39.3182 35.1797 39.3182Z" fill="#B88609"/>
</svg>
