<svg width="35" height="35" viewBox="   0 0 300 309" fill="none" xmlns="http://www.w3.org/2000/svg">
<path fill-rule="evenodd" clip-rule="evenodd" d="M132 305.853L50 239.853H10C4 239.853 0 234.853 0 229.853L0 77.8528C0 72.8528 4 67.8528 10 67.8528H50L132 2.85281C138 -3.14719 148 0.852814 148 9.85281C148 105.853 148 201.853 148 297.853C148 303.853 143 313.853 132 305.853Z" fill="black"/>
<path d="M257.924 154.166L295.013 116.847C301.366 110.442 301.338 100.107 294.919 93.7476C288.549 87.4081 278.168 87.4324 271.797 93.8288L234.88 130.978L197.962 93.8288C191.592 87.4162 181.211 87.3919 174.841 93.7476C168.422 100.103 168.389 110.442 174.747 116.847L211.835 154.166L174.743 191.485C168.389 197.889 168.418 208.228 174.837 214.584C178.016 217.748 182.185 219.33 186.351 219.33C190.549 219.33 194.763 217.719 197.958 214.507L234.876 177.358L271.793 214.507C274.989 217.719 279.203 219.33 283.401 219.33C287.567 219.33 291.736 217.748 294.915 214.584C301.334 208.228 301.366 197.889 295.009 191.485L257.924 154.166Z" fill="black"/>
</svg>
