<svg width="35" height="35" viewBox="0 0 35 35" fill="none" xmlns="http://www.w3.org/2000/svg">
<path d="M34.9999 17.0298C34.9977 20.4658 34.056 23.8203 32.2992 26.6501C30.5424 29.4799 28.0531 31.6519 25.1601 32.8794C22.2672 34.1069 19.1066 34.332 16.0959 33.525C13.0852 32.718 10.366 30.9169 8.29744 28.3595C8.08465 28.1279 7.91678 27.8505 7.80414 27.5444C7.6915 27.2382 7.63647 26.9097 7.64244 26.5791C7.6484 26.2485 7.71523 25.9227 7.83882 25.6218C7.9624 25.3209 8.14014 25.0512 8.36112 24.8292C8.58209 24.6073 8.84163 24.4378 9.1238 24.3312C9.40597 24.2245 9.70481 24.183 10.002 24.2092C10.2991 24.2354 10.5883 24.3286 10.8518 24.4833C11.1153 24.638 11.3475 24.8508 11.5341 25.1086C13.1185 27.0953 15.2463 28.4512 17.5915 28.9685C19.9368 29.4857 22.3703 29.1359 24.5193 27.9726C26.6682 26.8093 28.4142 24.8967 29.4898 22.5276C30.5655 20.1585 30.9114 17.4636 30.4746 14.8556C30.0379 12.2475 28.8426 9.87025 27.0717 8.08776C25.3009 6.30526 23.0522 5.21583 20.67 4.98633C18.2877 4.75683 15.9034 5.3999 13.882 6.81707C11.8607 8.23423 10.3139 10.3473 9.47838 12.8328C9.8851 12.4027 10.4255 12.1627 10.9874 12.1627C11.5493 12.1627 12.0896 12.4027 12.4964 12.8328C12.7013 13.0583 12.864 13.3266 12.9751 13.6223C13.0861 13.9179 13.1433 14.235 13.1433 14.5553C13.1433 14.8755 13.0861 15.1926 12.9751 15.4883C12.864 15.7839 12.7013 16.0522 12.4964 16.2778L8.12248 21.1299C7.91918 21.3573 7.6773 21.5377 7.4108 21.6609C7.14431 21.7841 6.85846 21.8475 6.56976 21.8475C6.28106 21.8475 5.99521 21.7841 5.72871 21.6609C5.46222 21.5377 5.22034 21.3573 5.01703 21.1299L0.64316 16.2778C0.231352 15.8209 0 15.2013 0 14.5553C0 13.9092 0.231352 13.2896 0.64316 12.8328C1.05497 12.3759 1.6135 12.1193 2.19589 12.1193C2.77827 12.1193 3.3368 12.3759 3.74861 12.8328L4.64525 13.8517C5.34918 9.68838 7.43026 5.96718 10.4801 3.41836C13.5299 0.869549 17.3283 -0.322849 21.1299 0.0751719C24.9314 0.473192 28.4616 2.43289 31.0278 5.5697C33.5939 8.7065 35.0106 12.7939 34.9999 17.0298Z" fill="black"/>
</svg>
