<svg width="35" height="35" viewBox="0 0 295 309" fill="none" xmlns="http://www.w3.org/2000/svg">
<path fill-rule="evenodd" clip-rule="evenodd" d="M132 305.875L50 239.875H10C4 239.875 0 234.875 0 229.875L0 77.8753C0 72.8753 4 67.8753 10 67.8753H50L132 2.87527C138 -3.12473 148 0.875275 148 9.87527C148 105.875 148 201.875 148 297.875C148 303.875 143 313.875 132 305.875Z" fill="black"/>
<path d="M189 202.875C180 211.875 166 197.875 175 188.875C194 169.875 194 138.875 175 118.875C166 109.875 180 95.8754 189 104.875C216 131.875 216 175.875 189 202.875Z" fill="black"/>
<path d="M220 233.875C211 242.875 197 228.875 206 219.875C242 183.875 242 124.875 206 87.8754C197 78.8754 211 64.8754 220 73.8754C264 117.875 264 189.875 220 233.875Z" fill="black"/>
<path d="M250 263.875C240 272.875 226 258.875 236 248.875C288 196.875 288 110.875 236 58.8752C226 48.8752 240 34.8752 250 44.8752C310 104.875 310 202.875 250 263.875Z" fill="black"/>
</svg>
